<svg id="Camada_1" data-name="Camada 1" xmlns="http://www.w3.org/2000/svg" viewBox="0 0 50 50"><defs><style>.cls-1{fill:#cf2b2b;}</style></defs><title>Sem título-1</title><path class="cls-1" d="M2.9,42.6,6.2,21h-4L3,15.9H6.9L7.4,13C7.8,9.9,9,7.5,11,6a11.5,11.5,0,0,1,7.6-2.4l1.9.2,2,.4L21.1,9.5,20,9.3H18.7a4.3,4.3,0,0,0-2.8.9A4.3,4.3,0,0,0,14.6,13l-.5,2.9h5.1L18.5,21H13.4L10.1,42.6Z"/><path class="cls-1" d="M19.2,42.6,24.6,6.7H36.3c4.1,0,7.2.9,9.4,2.5s3,4.1,2.6,7.4a9.4,9.4,0,0,1-2,4.4,8.8,8.8,0,0,1-4.1,2.9,6.3,6.3,0,0,1,4.6,2.9,9.2,9.2,0,0,1,.9,5.3c-.6,3.6-2.1,6.2-4.6,7.9s-5.8,2.6-10,2.6Zm9.5-15.9L27.2,37.1h6.7a8,8,0,0,0,4.5-1.3,5.5,5.5,0,0,0,2.1-3.7c.2-1.8,0-3.1-.9-4s-2.2-1.4-4.2-1.4Zm.8-5h5.1a7.1,7.1,0,0,0,4.3-1.2A4.6,4.6,0,0,0,41,17.1a3.7,3.7,0,0,0-1-3.7c-.9-.8-2.4-1.1-4.5-1.1H30.9Z"/></svg>